HIERARCHY
ROOT hip
{
  OFFSET 0 0 0
  CHANNELS 6 Xposition Yposition Zposition Zrotation Yrotation Xrotation
  JOINT abdomen
  {
    OFFSET 0 20.6881 -0.73152
    CHANNELS 3 Zrotation Xrotation Yrotation
    JOINT chest
    {
      OFFSET 0 11.7043 -0.48768
      CHANNELS 3 Zrotation Xrotation Yrotation
      JOINT neck
      {
        OFFSET 0 22.1894 -2.19456
        CHANNELS 3 Zrotation Xrotation Yrotation
        JOINT head
        {
          OFFSET -0.24384 7.07133 1.2192
          CHANNELS 3 Zrotation Xrotation Yrotation
          JOINT leftEye
          {
            OFFSET 4.14528 8.04674 8.04672
            CHANNELS 3 Zrotation Xrotation Yrotation
            End Site
            {
              OFFSET 1 0 0
            }
          }
          JOINT rightEye
          {
            OFFSET -3.6576 8.04674 8.04672
            CHANNELS 3 Zrotation Xrotation Yrotation
            End Site
            {
              OFFSET 1 0 0
            }
          }
        }
      }
      JOINT rCollar
      {
        OFFSET -2.68224 19.2634 -4.8768
        CHANNELS 3 Zrotation Xrotation Yrotation
        JOINT rShldr
        {
          OFFSET -8.77824 -1.95073 1.46304
          CHANNELS 3 Zrotation Xrotation Yrotation
          JOINT rForeArm
          {
            OFFSET -28.1742 -1.7115 0.48768
            CHANNELS 3 Zrotation Xrotation Yrotation
            JOINT rHand
            {
              OFFSET -22.5879 0.773209 7.07136
              CHANNELS 3 Zrotation Xrotation Yrotation
              JOINT rThumb1
              {
                OFFSET -1.2192 -0.487915 3.41376
                CHANNELS 3 Zrotation Xrotation Yrotation
                JOINT rThumb2
                {
                  OFFSET -3.37035 -0.52449 3.41376
                  CHANNELS 3 Zrotation Xrotation Yrotation
                  End Site
                  {
                    OFFSET -1.78271 -1.18214 1.43049
                  }
                }
              }
              JOINT rIndex1
              {
                OFFSET -7.75947 0.938293 5.60832
                CHANNELS 3 Zrotation Xrotation Yrotation
                JOINT rIndex2
                {
                  OFFSET -2.54057 -0.884171 1.56538
                  CHANNELS 3 Zrotation Xrotation Yrotation
                  End Site
                  {
                    OFFSET -1.62519 -0.234802 1.16502
                  }
                }
              }
              JOINT rMid1
              {
                OFFSET -8.24714 1.18213 3.41376
                CHANNELS 3 Zrotation Xrotation Yrotation
                JOINT rMid2
                {
                  OFFSET -3.10165 -0.590103 1.0647
                  CHANNELS 3 Zrotation Xrotation Yrotation
                  End Site
                  {
                    OFFSET -2.48547 -0.328903 0.83742
                  }
                }
              }
              JOINT rRing1
              {
                OFFSET -8.82822 0.546677 1.51678
                CHANNELS 3 Zrotation Xrotation Yrotation
                JOINT rRing2
                {
                  OFFSET -2.60934 -0.819778 -0.0198488
                  CHANNELS 3 Zrotation Xrotation Yrotation
                  End Site
                  {
                    OFFSET -2.33842 -0.294052 0.168128
                  }
                }
              }
              JOINT rPinky1
              {
                OFFSET -8.27202 -0.0477905 -0.4584
                CHANNELS 3 Zrotation Xrotation Yrotation
                JOINT rPinky2
                {
                  OFFSET -1.82734 -0.647385 -0.700984
                  CHANNELS 3 Zrotation Xrotation Yrotation
                  End Site
                  {
                    OFFSET -1.69225 -0.51767 -0.607171
                  }
                }
              }
            }
          }
        }
      }
      JOINT lCollar
      {
        OFFSET 2.68224 19.2634 -4.8768
        CHANNELS 3 Zrotation Xrotation Yrotation
        JOINT lShldr
        {
          OFFSET 8.77824 -1.95073 1.46304
          CHANNELS 3 Zrotation Xrotation Yrotation
          JOINT lForeArm
          {
            OFFSET 28.1742 -1.7115 0.48768
            CHANNELS 3 Zrotation Xrotation Yrotation
            JOINT lHand
            {
              OFFSET 22.5879 0.773209 7.07136
              CHANNELS 3 Zrotation Xrotation Yrotation
              JOINT lThumb1
              {
                OFFSET 1.2192 -0.487915 3.41376
                CHANNELS 3 Zrotation Xrotation Yrotation
                JOINT lThumb2
                {
                  OFFSET 3.37035 -0.52449 3.41376
                  CHANNELS 3 Zrotation Xrotation Yrotation
                  End Site
                  {
                    OFFSET 1.78271 -1.18214 1.43049
                  }
                }
              }
              JOINT lIndex1
              {
                OFFSET 7.75947 0.938293 5.60832
                CHANNELS 3 Zrotation Xrotation Yrotation
                JOINT lIndex2
                {
                  OFFSET 2.54057 -0.884171 1.56538
                  CHANNELS 3 Zrotation Xrotation Yrotation
                  End Site
                  {
                    OFFSET 1.62519 -0.234802 1.16502
                  }
                }
              }
              JOINT lMid1
              {
                OFFSET 8.24714 1.18213 3.41376
                CHANNELS 3 Zrotation Xrotation Yrotation
                JOINT lMid2
                {
                  OFFSET 3.10165 -0.590103 1.0647
                  CHANNELS 3 Zrotation Xrotation Yrotation
                  End Site
                  {
                    OFFSET 2.48547 -0.328903 0.83742
                  }
                }
              }
              JOINT lRing1
              {
                OFFSET 8.82822 0.546677 1.51678
                CHANNELS 3 Zrotation Xrotation Yrotation
                JOINT lRing2
                {
                  OFFSET 2.60934 -0.819778 -0.0198488
                  CHANNELS 3 Zrotation Xrotation Yrotation
                  End Site
                  {
                    OFFSET 2.33842 -0.294052 0.168128
                  }
                }
              }
              JOINT lPinky1
              {
                OFFSET 8.27202 -0.0477905 -0.4584
                CHANNELS 3 Zrotation Xrotation Yrotation
                JOINT lPinky2
                {
                  OFFSET 1.82734 -0.647385 -0.700984
                  CHANNELS 3 Zrotation Xrotation Yrotation
                  End Site
                  {
                    OFFSET 1.69225 -0.51767 -0.607171
                  }
                }
              }
            }
          }
        }
      }
    }
  }
  JOINT rButtock
  {
    OFFSET -8.77824 4.35084 1.2192
    CHANNELS 3 Zrotation Xrotation Yrotation
    JOINT rThigh
    {
      OFFSET 0 -1.70687 -2.19456
      CHANNELS 3 Zrotation Xrotation Yrotation
      JOINT rShin
      {
        OFFSET 0 -36.8199 0.73152
        CHANNELS 3 Zrotation Xrotation Yrotation
        JOINT rFoot
        {
          OFFSET 0.73152 -45.1104 -5.12064
          CHANNELS 3 Zrotation Xrotation Yrotation
          End Site
          {
            OFFSET -1.1221 -3.69964 12.103
          }
        }
      }
    }
  }
  JOINT lButtock
  {
    OFFSET 8.77824 4.35084 1.2192
    CHANNELS 3 Zrotation Xrotation Yrotation
    JOINT lThigh
    {
      OFFSET 0 -1.70687 -2.19456
      CHANNELS 3 Zrotation Xrotation Yrotation
      JOINT lShin
      {
        OFFSET 0 -36.8199 0.73152
        CHANNELS 3 Zrotation Xrotation Yrotation
        JOINT lFoot
        {
          OFFSET -0.73152 -45.1104 -5.12064
          CHANNELS 3 Zrotation Xrotation Yrotation
          End Site
          {
            OFFSET 1.1221 -3.69964 12.103
          }
        }
      }
    }
  }
}
MOTION
Frames:	9
Frame Time:	0.00833333
36.9086 120.94 44.3995 -0.2485 34.467 -10.3839 -1.59267 16.0134 0.525303 1.23359 -7.16795 0.10476 -0.772992 12.1546 2.47154 -4.38647 -18.4848 4.27502 -0.0 0.0 0.0 -0.0 0.0 0.0 1.2743e-13 3.57809e-14 4.23113e-13 12.0492 11.3952 58.0293 -19.3848 -12.2573 37.2067 -2.83064e-07 0.0151511 0.00212935 -3.29472e-09 -6.67246e-09 -7.04067e-10 -5.69452e-09 -1.15262e-08 -1.21289e-09 -3.29472e-09 -6.67246e-09 -7.04086e-10 7.73091 5.47488 0.417314 -3.29472e-09 -6.67246e-09 -7.0407e-10 2.90554 0.965183 0.102902 -3.29471e-09 -6.67246e-09 -7.04067e-10 10.2786 0.731801 0.0259123 -3.29473e-09 -6.67246e-09 -7.04057e-10 2.22167 -0.733487 -0.20892 1.27271e-13 3.57803e-14 4.22914e-13 -53.6578 9.86685 -19.1041 25.8638 -23.0903 -56.2086 0.0225349 -4.28144 0.602851 5.60188e-10 2.65266e-09 -2.1714e-09 9.77048e-10 4.58913e-09 -3.74898e-09 5.60182e-10 2.65266e-09 -2.17138e-09 -7.73091 5.47488 -0.417314 5.60187e-10 2.65265e-09 -2.17138e-09 -2.90554 0.965183 -0.102902 5.60176e-10 2.65265e-09 -2.17139e-09 -10.2786 0.731801 -0.0259123 5.60188e-10 2.65265e-09 -2.17139e-09 -2.22167 -0.733487 0.20892 -2.03217e-16 0.0 -3.88251e-19 -6.91509 -26.5278 -11.5559 -4.35608 78.1328 4.36653 2.35595 30.0431 -7.35641 2.03217e-16 0.0 3.88251e-19 4.95861 -19.692 7.45975 1.45474 65.086 -1.91954 1.3854 10.2315 -11.6521
39.0944 121.013 47.8276 -0.3398 33.9436 -10.9012 -1.36099 17.3045 0.83993 1.02826 -7.1534 0.196919 -0.844377 13.4705 2.86002 -4.68265 -21.5504 4.84776 -0.0 0.0 0.0 -0.0 0.0 0.0 1.6852e-13 -1.14349e-13 3.07512e-13 10.2778 14.8344 59.2913 -19.0664 -11.8592 36.5326 -0.00406851 -0.693356 -0.0973388 -2.27435e-09 -3.85261e-09 1.4051e-10 -3.93226e-09 -6.65345e-09 2.49217e-10 -2.27435e-09 -3.85262e-09 1.40492e-10 7.73091 5.47488 0.417314 -2.27435e-09 -3.85261e-09 1.40507e-10 2.90554 0.965183 0.102902 -2.27434e-09 -3.85261e-09 1.4051e-10 10.2786 0.731801 0.0259123 -2.27436e-09 -3.85261e-09 1.40519e-10 2.22167 -0.733487 -0.20892 1.68376e-13 -1.1435e-13 3.07309e-13 -55.6889 12.5677 -17.9485 25.3187 -21.8187 -53.9855 0.0243795 -4.44023 0.625323 2.2316e-10 1.90638e-09 -1.65072e-09 3.9256e-10 3.30079e-09 -2.85224e-09 2.23154e-10 1.90638e-09 -1.65071e-09 -7.73091 5.47488 -0.417314 2.2316e-10 1.90637e-09 -1.65071e-09 -2.90554 0.965183 -0.102902 2.23148e-10 1.90637e-09 -1.65071e-09 -10.2786 0.731801 -0.0259123 2.23161e-10 1.90637e-09 -1.65072e-09 -2.22167 -0.733487 0.20892 -2.03217e-16 0.0 -3.88251e-19 -7.00577 -27.9538 -12.1288 -3.79398 76.7725 3.85657 1.99728 28.8325 -6.70146 2.03217e-16 0.0 3.88251e-19 4.95871 -20.7614 6.54723 1.24013 62.5674 -1.70019 1.25102 9.78093 -10.8498
41.2549 120.809 51.2835 -0.6623 33.4424 -11.3537 -1.05763 18.3798 1.13777 0.809059 -7.10056 0.289776 -0.995547 14.9677 3.27593 -4.88735 -24.9684 5.47567 -0.0 0.0 0.0 -0.0 0.0 0.0 2.13205e-13 -3.33747e-13 5.64051e-15 8.31357 18.3681 60.6273 -18.7821 -11.5053 35.9594 -0.00526596 -1.08944 -0.153031 -2.79762e-10 1.22432e-09 1.53593e-09 -4.86596e-10 2.11926e-09 2.66389e-09 -2.7976e-10 1.22431e-09 1.53592e-09 7.73091 5.47488 0.417314 -2.79763e-10 1.22432e-09 1.53593e-09 2.90554 0.965183 0.102902 -2.79757e-10 1.22432e-09 1.53593e-09 10.2786 0.731801 0.0259123 -2.79781e-10 1.22431e-09 1.53594e-09 2.22167 -0.733487 -0.20892 2.13097e-13 -3.33748e-13 5.42616e-15 -57.2314 15.6136 -16.9727 24.6365 -20.3687 -51.4962 0.0287792 -4.79485 0.675541 -2.40608e-10 2.10343e-10 -3.54758e-10 -4.14661e-10 3.70057e-10 -6.17983e-10 -2.40614e-10 2.10345e-10 -3.54746e-10 -7.73091 5.47488 -0.417314 -2.40606e-10 2.10341e-10 -3.54749e-10 -2.90554 0.965183 -0.102902 -2.40618e-10 2.10339e-10 -3.54749e-10 -10.2786 0.731801 -0.0259123 -2.40605e-10 2.10343e-10 -3.54757e-10 -2.22167 -0.733487 0.20892 -2.03217e-16 0.0 -3.88251e-19 -6.92565 -29.2895 -12.6526 -3.11611 74.6557 3.22591 1.71119 27.4584 -6.20848 2.03217e-16 0.0 3.88251e-19 4.97256 -21.6855 5.43254 1.0305 59.5606 -1.48871 1.14485 9.43237 -9.94945
43.4337 120.254 54.756 -0.9669 32.8902 -11.6923 -0.784418 19.279 1.43306 0.594209 -7.0425 0.382213 -1.10864 15.9749 3.58439 -5.00102 -27.2495 5.95573 -0.0 0.0 0.0 -0.0 0.0 0.0 2.42832e-13 -5.22289e-13 -3.38771e-13 6.13028 21.8745 61.9335 -18.7138 -11.4263 35.8065 -0.00382532 -1.19671 -0.168174 1.74332e-09 6.30905e-09 2.89547e-09 3.0085e-09 1.09054e-08 5.01649e-09 1.74332e-09 6.30903e-09 2.89545e-09 7.73091 5.47488 0.417314 1.74332e-09 6.30904e-09 2.89546e-09 2.90554 0.965183 0.102902 1.74332e-09 6.30904e-09 2.89547e-09 10.2786 0.731801 0.0259123 1.7433e-09 6.30903e-09 2.89547e-09 2.22167 -0.733487 -0.20892 2.42761e-13 -5.2229e-13 -3.39001e-13 -58.4756 19.0421 -15.7776 23.9936 -19.1012 -49.4966 0.0350775 -5.29017 0.745716 -6.1092e-10 -1.52099e-09 1.08642e-09 -1.06119e-09 -2.62322e-09 1.86784e-09 -6.10926e-10 -1.52098e-09 1.08643e-09 -7.73091 5.47488 -0.417314 -6.10917e-10 -1.52099e-09 1.08642e-09 -2.90554 0.965183 -0.102902 -6.10928e-10 -1.52099e-09 1.08643e-09 -10.2786 0.731801 -0.0259123 -6.10916e-10 -1.52098e-09 1.08642e-09 -2.22167 -0.733487 0.20892 -2.03217e-16 0.0 -3.88251e-19 -6.76864 -30.4731 -13.1139 -2.49348 71.995 2.64491 1.44887 25.9988 -5.74985 2.03217e-16 0.0 3.88251e-19 4.95692 -22.488 4.23384 0.846161 56.3002 -1.30283 1.08733 9.30654 -9.07162
45.6189 119.472 58.2932 -1.3115 32.2485 -12.0205 -0.645144 20.0416 1.74053 0.402156 -7.01231 0.473144 -1.04486 15.8224 3.64238 -5.10271 -26.9122 6.02916 -0.0 0.0 0.0 -0.0 0.0 0.0 2.38751e-13 -5.79855e-13 -5.81992e-13 3.74806 25.2659 63.0209 -19.0391 -11.8492 36.3953 -0.00132361 -1.03879 -0.146009 2.84917e-09 9.15226e-09 3.63237e-09 4.91905e-09 1.58182e-08 6.29238e-09 2.84918e-09 9.15224e-09 3.63235e-09 7.73091 5.47488 0.417314 2.84917e-09 9.15226e-09 3.63236e-09 2.90554 0.965183 0.102902 2.84918e-09 9.15226e-09 3.63237e-09 10.2786 0.731801 0.0259123 2.84915e-09 9.15224e-09 3.63237e-09 2.22167 -0.733487 -0.20892 2.38696e-13 -5.79855e-13 -5.8224e-13 -59.7208 22.9037 -13.9278 23.6994 -18.5459 -48.6719 0.0424633 -5.8711 0.828058 -6.67583e-10 -2.37315e-09 2.04274e-09 -1.16361e-09 -4.09915e-09 3.51929e-09 -6.67588e-10 -2.37315e-09 2.04275e-09 -7.73091 5.47488 -0.417314 -6.67579e-10 -2.37315e-09 2.04274e-09 -2.90554 0.965183 -0.102902 -6.67589e-10 -2.37315e-09 2.04274e-09 -10.2786 0.731801 -0.0259123 -6.67578e-10 -2.37315e-09 2.04273e-09 -2.22167 -0.733487 0.20892 -2.03217e-16 0.0 -3.88251e-19 -6.62597 -31.4432 -13.4966 -1.99003 69.004 2.17735 1.17212 24.5285 -5.20183 2.03217e-16 0.0 3.88251e-19 4.87499 -23.1954 3.07229 0.695055 53.021 -1.14816 1.09011 9.52653 -8.33572
47.8241 118.414 61.8561 -1.541 31.643 -12.1822 -0.703728 20.6678 2.09425 0.206104 -7.04997 0.568261 -0.65946 13.8032 3.30129 -5.21022 -22.3648 5.45909 -0.0 0.0 0.0 -0.0 0.0 0.0 1.79855e-13 -4.24861e-13 -7.08038e-13 1.19121 28.6362 63.7794 -19.6892 -12.6421 37.9708 0.00207778 -0.422914 -0.0594503 2.54552e-09 8.6434e-09 3.47005e-09 4.3946e-09 1.49389e-08 6.01377e-09 2.54553e-09 8.64338e-09 3.47003e-09 7.73091 5.47488 0.417314 2.54552e-09 8.64341e-09 3.47005e-09 2.90554 0.965183 0.102902 2.54553e-09 8.64341e-09 3.47005e-09 10.2786 0.731801 0.0259123 2.5455e-09 8.64339e-09 3.47006e-09 2.22167 -0.733487 -0.20892 1.79776e-13 -4.2486e-13 -7.08316e-13 -61.0127 27.5706 -11.2985 23.8745 -18.8716 -49.3674 0.0524334 -6.60639 0.93246 -1.77877e-10 -1.80234e-09 2.3069e-09 -3.18721e-10 -3.11934e-09 3.98037e-09 -1.77881e-10 -1.80233e-09 2.30692e-09 -7.73091 5.47488 -0.417314 -1.77874e-10 -1.80234e-09 2.30691e-09 -2.90554 0.965183 -0.102902 -1.77883e-10 -1.80233e-09 2.30691e-09 -10.2786 0.731801 -0.0259123 -1.77874e-10 -1.80233e-09 2.3069e-09 -2.22167 -0.733487 0.20892 -2.03217e-16 0.0 -3.88251e-19 -6.52032 -32.1845 -13.7951 -1.57695 65.5753 1.79468 0.845121 22.8324 -4.47786 2.03217e-16 0.0 3.88251e-19 4.69119 -23.7598 1.95449 0.565935 49.6197 -1.0123 1.15185 10.2351 -7.67535
50.0898 117.015 65.4206 -1.4822 31.227 -12.1068 -0.889209 21.1397 2.47511 0.00709229 -7.12746 0.666189 -0.112952 10.4472 2.69366 -5.09894 -14.7815 4.57243 -0.0 0.0 0.0 -0.0 0.0 0.0 8.14683e-14 -1.29e-13 -7.86119e-13 -1.47223 32.1236 64.2737 -20.5306 -13.6687 40.3337 0.00325589 0.597161 0.0838874 1.41678e-09 6.15235e-09 2.76148e-09 2.44483e-09 1.06343e-08 4.79088e-09 1.41678e-09 6.15234e-09 2.76147e-09 7.73091 5.47488 0.417314 1.41678e-09 6.15235e-09 2.76149e-09 2.90554 0.965183 0.102902 1.41679e-09 6.15235e-09 2.76149e-09 10.2786 0.731801 0.0259123 1.41677e-09 6.15234e-09 2.7615e-09 2.22167 -0.733487 -0.20892 8.13417e-14 -1.28998e-13 -7.86436e-13 -62.6011 32.884 -7.94537 24.3558 -19.8016 -51.1483 0.0673598 -7.49757 1.05955 6.82759e-10 -3.96245e-10 2.22805e-09 1.16867e-09 -6.98739e-10 3.85238e-09 6.82756e-10 -3.96236e-10 2.22806e-09 -7.73091 5.47488 -0.417314 6.82761e-10 -3.96241e-10 2.22805e-09 -2.90554 0.965183 -0.102902 6.82753e-10 -3.9624e-10 2.22805e-09 -10.2786 0.731801 -0.0259123 6.8276e-10 -3.96244e-10 2.22805e-09 -2.22167 -0.733487 0.20892 -2.03217e-16 0.0 -3.88251e-19 -6.38845 -32.7325 -14.0076 -1.23366 61.6499 1.47516 0.520347 20.9461 -3.67061 2.03217e-16 0.0 3.88251e-19 4.44758 -24.1837 0.82864 0.45332 46.0264 -0.89057 1.24495 11.3337 -7.05763
52.4365 115.319 68.9744 -1.2348 30.9606 -11.8871 -1.1025 21.4703 2.81777 -0.134891 -7.17583 0.755206 0.321117 6.94398 2.0767 -4.6846 -6.84766 3.79905 -0.0 0.0 0.0 -0.0 0.0 0.0 -2.04126e-14 1.77936e-13 -8.0029e-13 -4.1079 35.7061 64.474 -21.5907 -15.1067 43.1713 -0.000903074 1.62803 0.228828 1.32266e-10 3.15047e-09 1.86426e-09 2.26018e-10 5.44711e-09 3.24105e-09 1.32267e-10 3.15046e-09 1.86424e-09 7.73091 5.47488 0.417314 1.32265e-10 3.15047e-09 1.86426e-09 2.90554 0.965183 0.102902 1.32271e-10 3.15047e-09 1.86426e-09 10.2786 0.731801 0.0259123 1.32259e-10 3.15047e-09 1.86427e-09 2.22167 -0.733487 -0.20892 -2.05803e-14 1.7794e-13 -8.00636e-13 -65.166 38.0408 -3.59152 25.0353 -21.2048 -53.5377 0.0856899 -8.38866 1.18734 1.52229e-09 1.06232e-09 2.01074e-09 2.61997e-09 1.81243e-09 3.48534e-09 1.52229e-09 1.06234e-09 2.01075e-09 -7.73091 5.47488 -0.417314 1.52229e-09 1.06233e-09 2.01074e-09 -2.90554 0.965183 -0.102902 1.52228e-09 1.06233e-09 2.01074e-09 -10.2786 0.731801 -0.0259123 1.52229e-09 1.06232e-09 2.01074e-09 -2.22167 -0.733487 0.20892 -2.03217e-16 0.0 -3.88251e-19 -6.19274 -33.1019 -14.1226 -0.964374 57.5144 1.2214 0.267304 19.3226 -2.91188 2.03217e-16 0.0 3.88251e-19 4.22124 -24.5721 -0.272041 0.362677 42.5265 -0.789945 1.35758 12.5828 -6.65455
54.7626 113.35 72.623 -1.2767 30.6949 -11.8867 -1.24348 21.6732 3.05653 -0.160311 -7.12615 0.823532 0.469457 4.48909 1.67634 -4.20218 -1.27442 3.37888 -0.0 0.0 0.0 -0.0 0.0 0.0 -8.97926e-14 3.66159e-13 -7.34609e-13 -6.56302 39.3382 64.3045 -22.871 -17.1236 46.2135 -0.00635925 2.27632 0.320086 -6.38697e-10 1.10911e-09 1.13595e-09 -1.10557e-09 1.9198e-09 1.98165e-09 -6.38696e-10 1.10911e-09 1.13594e-09 7.73091 5.47488 0.417314 -6.38698e-10 1.10911e-09 1.13596e-09 2.90554 0.965183 0.102902 -6.38693e-10 1.10911e-09 1.13596e-09 10.2786 0.731801 0.0259123 -6.38699e-10 1.10911e-09 1.13597e-09 2.22167 -0.733487 -0.20892 -8.99644e-14 3.66163e-13 -7.34957e-13 -69.2151 42.1552 2.00848 25.8318 -23.0108 -56.0796 0.103196 -9.12376 1.29332 1.94867e-09 1.79057e-09 1.85953e-09 3.35658e-09 3.06396e-09 3.22927e-09 1.94867e-09 1.79058e-09 1.85955e-09 -7.73091 5.47488 -0.417314 1.94867e-09 1.79057e-09 1.85953e-09 -2.90554 0.965183 -0.102902 1.94867e-09 1.79057e-09 1.85953e-09 -10.2786 0.731801 -0.0259123 1.94867e-09 1.79056e-09 1.85953e-09 -2.22167 -0.733487 0.20892 -2.03217e-16 0.0 -3.88251e-19 -5.89752 -33.3074 -14.1299 -0.760121 53.4553 1.02326 0.115825 18.4191 -2.31734 2.03217e-16 0.0 3.88251e-19 4.08125 -25.0316 -1.3175 0.294686 39.4054 -0.713396 1.50302 13.7409 -6.64108
